<?xml version="1.0" standalone="no"?>
<!DOCTYPE svg PUBLIC "-//W3C//DTD SVG 20010904//EN"
 "http://www.w3.org/TR/2001/REC-SVG-20010904/DTD/svg10.dtd">
<svg version="1.0" xmlns="http://www.w3.org/2000/svg"
 width="472.000000pt" height="229.000000pt" viewBox="0 0 472.000000 229.000000"
 preserveAspectRatio="xMidYMid meet">
<metadata>
Created by potrace 1.16, written by Peter Selinger 2001-2019
</metadata>
<g transform="translate(0.000000,229.000000) scale(0.100000,-0.100000)"
fill="#000000" stroke="none">
<path d="M1239 2144 l-26 -26 32 -49 c76 -112 45 -222 -74 -264 -36 -12 -109
-15 -442 -15 l-399 0 0 -75 0 -75 102 0 101 0 -60 -63 c-99 -103 -143 -214
-143 -362 0 -44 7 -107 15 -140 72 -273 369 -450 639 -380 242 63 405 271 406
515 0 150 -49 271 -151 372 l-67 66 46 18 c63 24 125 84 152 146 29 67 24 160
-12 239 -24 52 -73 119 -87 119 -3 0 -18 -12 -32 -26z m-262 -518 c133 -36
250 -132 293 -241 34 -87 33 -190 -2 -267 -70 -151 -229 -248 -407 -248 -136
0 -247 46 -335 139 -71 77 -100 148 -101 246 0 71 4 88 33 147 53 109 168 198
291 227 57 14 171 12 228 -3z"/>
<path d="M1054 1335 c-55 -28 -73 -111 -33 -154 46 -49 102 -50 152 -3 79 75
-20 207 -119 157z"/>
<path d="M4076 2142 c-24 -26 -25 -30 -11 -42 21 -17 51 -76 59 -117 10 -44
-9 -104 -41 -136 -58 -55 -80 -57 -514 -57 l-399 0 0 -75 0 -75 102 0 101 0
-60 -63 c-99 -103 -143 -214 -143 -362 0 -203 102 -376 276 -467 173 -91 335
-91 508 0 252 132 348 444 219 712 -16 33 -54 82 -94 122 l-67 66 46 18 c63
24 125 84 152 146 29 67 24 160 -12 239 -24 53 -73 119 -87 119 -4 0 -20 -13
-35 -28z m-259 -516 c133 -36 250 -132 293 -241 34 -86 33 -190 -2 -267 -128
-277 -529 -336 -742 -108 -71 76 -100 147 -101 245 0 71 4 88 33 147 52 107
170 199 289 227 59 14 172 12 230 -3z"/>
<path d="M3894 1335 c-55 -28 -73 -111 -33 -154 46 -49 102 -50 152 -3 79 75
-20 207 -119 157z"/>
<path d="M1630 575 l0 -45 640 0 640 0 0 45 0 45 -640 0 -640 0 0 -45z"/>
</g>
</svg>
