<?xml version="1.0" standalone="no"?>
<!DOCTYPE svg PUBLIC "-//W3C//DTD SVG 20010904//EN"
 "http://www.w3.org/TR/2001/REC-SVG-20010904/DTD/svg10.dtd">
<svg version="1.0" xmlns="http://www.w3.org/2000/svg"
 width="184.000000pt" height="184.000000pt" viewBox="0 0 184.000000 184.000000"
 preserveAspectRatio="xMidYMid meet">
<metadata>
Created by potrace 1.16, written by Peter Selinger 2001-2019
</metadata>
<g transform="translate(0.000000,184.000000) scale(0.100000,-0.100000)"
fill="#000000" stroke="none">
<path d="M1236 1692 c-24 -26 -25 -30 -11 -42 23 -19 52 -79 60 -122 14 -75
-32 -144 -114 -173 -36 -12 -109 -15 -442 -15 l-399 0 0 -75 0 -75 102 0 101
0 -60 -63 c-99 -103 -143 -214 -143 -362 0 -211 107 -383 295 -476 157 -78
313 -78 470 0 268 133 369 439 238 719 -16 36 -51 82 -94 124 l-67 66 46 17
c56 22 117 76 145 129 33 62 31 182 -4 256 -25 54 -74 120 -88 120 -4 0 -20
-13 -35 -28z m-267 -513 c124 -28 240 -118 293 -227 28 -58 32 -77 32 -147 0
-66 -4 -90 -26 -137 -129 -278 -529 -336 -742 -108 -71 76 -100 147 -101 245
0 71 4 88 33 147 53 109 168 198 291 227 51 12 168 12 220 0z"/>
<path d="M1064 891 c-80 -34 -84 -150 -7 -186 100 -48 194 82 115 158 -31 30
-76 41 -108 28z"/>
</g>
</svg>
