<?xml version="1.0" standalone="no"?>
<!DOCTYPE svg PUBLIC "-//W3C//DTD SVG 20010904//EN"
 "http://www.w3.org/TR/2001/REC-SVG-20010904/DTD/svg10.dtd">
<svg version="1.0" xmlns="http://www.w3.org/2000/svg"
 width="405.000000pt" height="172.000000pt" viewBox="0 0 405.000000 172.000000"
 preserveAspectRatio="xMidYMid meet">
<metadata>
Created by potrace 1.16, written by Peter Selinger 2001-2019
</metadata>
<g transform="translate(0.000000,172.000000) scale(0.100000,-0.100000)"
fill="#000000" stroke="none">
<path d="M966 1652 c-24 -26 -25 -30 -11 -42 23 -19 52 -79 60 -122 14 -75
-32 -144 -114 -173 -36 -12 -109 -15 -442 -15 l-399 0 0 -75 0 -75 102 0 101
0 -60 -63 c-99 -103 -143 -214 -143 -362 0 -211 107 -383 295 -476 157 -78
313 -78 471 0 185 92 294 266 294 471 0 149 -49 272 -151 372 l-67 66 46 18
c63 24 125 84 152 146 29 67 24 160 -12 239 -24 53 -73 119 -87 119 -4 0 -20
-13 -35 -28z m-257 -517 c135 -36 247 -128 292 -242 51 -129 23 -267 -77 -373
-143 -153 -391 -186 -576 -77 -61 36 -135 117 -166 185 -38 81 -38 192 0 275
52 111 171 207 294 236 60 14 173 12 233 -4z"/>
<path d="M794 851 c-80 -34 -84 -150 -7 -186 100 -48 194 82 115 158 -31 30
-76 41 -108 28z"/>
<path d="M3806 1652 c-24 -26 -25 -30 -11 -42 23 -19 52 -79 60 -122 14 -75
-32 -144 -114 -173 -36 -12 -109 -15 -442 -15 l-399 0 0 -75 0 -75 104 0 105
0 -59 -55 c-100 -96 -150 -219 -150 -370 0 -210 107 -383 295 -476 157 -78
313 -78 470 0 268 133 369 439 238 719 -16 36 -51 82 -94 124 l-67 66 46 18
c63 24 125 84 152 146 29 67 24 160 -12 239 -24 53 -73 119 -87 119 -4 0 -20
-13 -35 -28z m-267 -513 c124 -28 240 -118 293 -227 28 -58 32 -77 32 -147 0
-98 -28 -168 -100 -245 -86 -92 -201 -140 -335 -140 -134 0 -246 47 -333 139
-72 78 -101 148 -101 246 0 71 4 89 33 147 53 109 168 198 291 227 51 12 168
12 220 0z"/>
<path d="M3634 851 c-65 -28 -83 -110 -35 -163 24 -27 36 -33 70 -33 56 0 101
43 101 97 0 68 -76 124 -136 99z"/>
<path d="M1360 85 l0 -45 640 0 640 0 0 45 0 45 -640 0 -640 0 0 -45z"/>
</g>
</svg>
